<svg width="24" height="24" viewBox="0 0 24 24" fill="none" xmlns="http://www.w3.org/2000/svg">
<path d="M12 2.83337C17.0627 2.83337 21.1666 6.93729 21.1666 12C21.1666 17.0628 17.0627 21.1667 12 21.1667H4.66665C4.18042 21.1667 3.7141 20.9736 3.37028 20.6297C3.02647 20.2859 2.83331 19.8196 2.83331 19.3334V12C2.83331 6.93729 6.93723 2.83337 12 2.83337ZM12 13.8334C12.2336 13.8336 12.4583 13.9231 12.6282 14.0835C12.7981 14.2439 12.9004 14.4631 12.9141 14.6963C12.9277 14.9296 12.8519 15.1592 12.7019 15.3384C12.5519 15.5176 12.3392 15.6327 12.1072 15.6603L12 15.6667H9.24998C9.01634 15.6664 8.79162 15.577 8.62173 15.4166C8.45183 15.2562 8.3496 15.037 8.3359 14.8038C8.32221 14.5705 8.3981 14.3409 8.54806 14.1617C8.69801 13.9825 8.91073 13.8674 9.14273 13.8398L9.24998 13.8334H12ZM14.75 10.1667C14.9931 10.1667 15.2263 10.2633 15.3982 10.4352C15.5701 10.6071 15.6666 10.8403 15.6666 11.0834C15.6666 11.3265 15.5701 11.5596 15.3982 11.7316C15.2263 11.9035 14.9931 12 14.75 12H12H9.24998C9.00686 12 8.77371 11.9035 8.6018 11.7316C8.42989 11.5596 8.33331 11.3265 8.33331 11.0834C8.33331 10.8403 8.42989 10.6071 8.6018 10.4352C8.77371 10.2633 9.00686 10.1667 9.24998 10.1667H14.75Z" fill="black"></path>
<path d="M12 13.8333C12.2336 13.8336 12.4583 13.923 12.6282 14.0834C12.7981 14.2438 12.9004 14.463 12.9141 14.6962C12.9277 14.9295 12.8519 15.1591 12.7019 15.3383C12.5519 15.5175 12.3392 15.6326 12.1072 15.6602L12 15.6666H9.24998C9.01634 15.6664 8.79162 15.5769 8.62173 15.4165C8.45183 15.2561 8.3496 15.0369 8.3359 14.8037C8.32221 14.5704 8.3981 14.3408 8.54806 14.1616C8.69801 13.9824 8.91073 13.8673 9.14273 13.8397L9.24998 13.8333H12ZM14.75 10.1666C14.9931 10.1666 15.2263 10.2632 15.3982 10.4351C15.5701 10.607 15.6666 10.8402 15.6666 11.0833C15.6666 11.3264 15.5701 11.5596 15.3982 11.7315C15.2263 11.9034 14.9931 12 14.75 12H12H9.24998C9.00686 12 8.77371 11.9034 8.6018 11.7315C8.42989 11.5596 8.33331 11.3264 8.33331 11.0833C8.33331 10.8402 8.42989 10.607 8.6018 10.4351C8.77371 10.2632 9.00686 10.1666 9.24998 10.1666H14.75Z" fill="white"></path>
</svg>